<svg aria-hidden="true" style="position: absolute; width: 0; height: 0; overflow: hidden;" version="1.1" xmlns="http://www.w3.org/2000/svg" xmlns:xlink="http://www.w3.org/1999/xlink">
<defs>
<symbol id="icon-call" viewBox="0 0 32 32">
<path  d="M6.293 3.556c0.107 1.582 0.373 3.129 0.8 4.604l-2.133 2.133c-0.729-2.133-1.191-4.391-1.351-6.738h2.684zM23.822 24.924c1.511 0.427 3.058 0.693 4.622 0.8v2.649c-2.347-0.16-4.604-0.622-6.756-1.333l2.133-2.116zM8 0h-6.222c-0.978 0-1.778 0.8-1.778 1.778 0 16.693 13.529 30.222 30.222 30.222 0.978 0 1.778-0.8 1.778-1.778v-6.204c0-0.978-0.8-1.778-1.778-1.778-2.204 0-4.356-0.356-6.347-1.013-0.178-0.071-0.373-0.089-0.551-0.089-0.462 0-0.907 0.178-1.262 0.516l-3.911 3.911c-5.031-2.578-9.156-6.684-11.716-11.716l3.911-3.911c0.498-0.498 0.64-1.191 0.444-1.813-0.658-1.991-1.013-4.124-1.013-6.347 0-0.978-0.8-1.778-1.778-1.778z"></path>
</symbol>
<symbol id="icon-clients" viewBox="0 0 46 32">
<path   d="M16 20c-5.349 0-16 2.674-16 8v4h32v-4c0-5.326-10.651-8-16-8zM5.349 27.429c1.92-1.326 6.56-2.857 10.651-2.857s8.731 1.531 10.651 2.857h-21.303zM16 16c4.411 0 8-3.589 8-8s-3.589-8-8-8c-4.411 0-8 3.589-8 8s3.589 8 8 8zM16 4.571c1.897 0 3.429 1.531 3.429 3.429s-1.531 3.429-3.429 3.429c-1.897 0-3.429-1.531-3.429-3.429s1.531-3.429 3.429-3.429zM32.091 20.137c2.651 1.92 4.48 4.48 4.48 7.863v4h9.143v-4c0-4.617-8-7.246-13.623-7.863zM29.714 16c4.411 0 8-3.589 8-8s-3.589-8-8-8c-1.234 0-2.377 0.297-3.429 0.8 1.44 2.034 2.286 4.526 2.286 7.2s-0.846 5.166-2.286 7.2c1.051 0.503 2.194 0.8 3.429 0.8z"></path>
</symbol>
<symbol id="icon-data" viewBox="0 0 26 32">
<path d="M13.091 11.636c3.215 0 5.818-2.604 5.818-5.818s-2.604-5.818-5.818-5.818c-3.215 0-5.818 2.604-5.818 5.818s2.604 5.818 5.818 5.818zM13.091 2.909c1.6 0 2.909 1.309 2.909 2.909s-1.309 2.909-2.909 2.909c-1.6 0-2.909-1.309-2.909-2.909s1.309-2.909 2.909-2.909zM13.091 15.345c-3.433-3.2-8.029-5.164-13.091-5.164v16c5.062 0 9.658 1.964 13.091 5.164 3.433-3.185 8.029-5.164 13.091-5.164v-16c-5.062 0-9.658 1.964-13.091 5.164zM23.273 23.462c-3.68 0.495-7.171 1.891-10.182 4.102-2.996-2.211-6.502-3.622-10.182-4.116v-10.109c3.055 0.553 5.891 1.964 8.204 4.116l1.978 1.862 1.978-1.847c2.313-2.153 5.149-3.564 8.204-4.116v10.109z"></path>
</symbol>
<symbol id="icon-doc" viewBox="0 0 26 32">
<path  d="M6.4 22.4h12.8v3.2h-12.8v-3.2zM6.4 16h12.8v3.2h-12.8v-3.2zM16 0h-12.8c-1.76 0-3.2 1.44-3.2 3.2v25.6c0 1.76 1.424 3.2 3.184 3.2h19.216c1.76 0 3.2-1.44 3.2-3.2v-19.2l-9.6-9.6zM22.4 28.8h-19.2v-25.6h11.2v8h8v17.6z"></path>
</symbol>
<symbol id="icon-message" viewBox="0 0 40 32">
<path  d="M36 0h-32c-2.2 0-3.98 1.8-3.98 4l-0.020 24c0 2.2 1.8 4 4 4h32c2.2 0 4-1.8 4-4v-24c0-2.2-1.8-4-4-4zM36 28h-32v-20l16 10 16-10v20zM20 14l-16-10h32l-16 10z"></path>
</symbol>
<symbol id="icon-order" viewBox="0 0 55 32">
<path  d="M41.143 4.572l-3.223-3.223-14.491 14.491 3.223 3.223 14.491-14.491zM50.834 1.349l-24.183 24.183-9.554-9.531-3.223 3.223 12.777 12.777 27.429-27.429-3.246-3.223zM0.937 19.223l12.777 12.777 3.223-3.223-12.754-12.777-3.246 3.223z"></path>
</symbol>
<symbol id="icon-person" viewBox="0 0 32 32">
<path d="M16 4c2.2 0 4 1.8 4 4s-1.8 4-4 4c-2.2 0-4-1.8-4-4s1.8-4 4-4zM16 22c5.4 0 11.6 2.58 12 4v2h-24v-1.98c0.4-1.44 6.6-4.020 12-4.020zM16 0c-4.42 0-8 3.58-8 8s3.58 8 8 8c4.42 0 8-3.58 8-8s-3.58-8-8-8zM16 18c-5.34 0-16 2.68-16 8v6h32v-6c0-5.32-10.66-8-16-8z"></path>
</symbol>
<symbol id="icon-report" viewBox="0 0 34 32">
<path d="M30.316 6.737c0.977 0 1.768 0.337 2.392 0.994 0.64 0.691 0.977 1.448 0.977 2.375v18.526c0 0.926-0.337 1.684-0.977 2.375-0.623 0.657-1.415 0.994-2.392 0.994h-26.947c-0.977 0-1.768-0.337-2.392-0.994-0.64-0.691-0.977-1.448-0.977-2.375v-18.526c0-0.926 0.337-1.684 0.977-2.375 0.623-0.657 1.415-0.994 2.392-0.994h6.737v-3.368c0-0.977 0.337-1.768 0.977-2.392 0.623-0.64 1.415-0.977 2.392-0.977h6.737c0.977 0 1.768 0.337 2.392 0.977 0.64 0.623 0.977 1.415 0.977 2.392v3.368h6.737zM3.368 10.105v18.526h26.947v-18.526h-26.947zM20.211 6.737v-3.368h-6.737v3.368h6.737z"></path>
</symbol>
<symbol id="icon-settings" viewBox="0 0 32 32">
<path  d="M27.886 17.568c0.064-0.512 0.112-1.024 0.112-1.568s-0.048-1.056-0.112-1.568l3.376-2.64c0.304-0.24 0.384-0.672 0.192-1.024l-3.2-5.536c-0.144-0.256-0.416-0.4-0.704-0.4-0.096 0-0.192 0.016-0.272 0.048l-3.984 1.6c-0.832-0.64-1.728-1.168-2.704-1.568l-0.608-4.24c-0.048-0.384-0.384-0.672-0.784-0.672h-6.4c-0.4 0-0.736 0.288-0.784 0.672l-0.608 4.24c-0.976 0.4-1.872 0.944-2.704 1.568l-3.984-1.6c-0.096-0.032-0.192-0.048-0.288-0.048-0.272 0-0.544 0.144-0.688 0.4l-3.2 5.536c-0.208 0.352-0.112 0.784 0.192 1.024l3.376 2.64c-0.064 0.512-0.112 1.040-0.112 1.568s0.048 1.056 0.112 1.568l-3.376 2.64c-0.304 0.24-0.384 0.672-0.192 1.024l3.2 5.536c0.144 0.256 0.416 0.4 0.704 0.4 0.096 0 0.192-0.016 0.272-0.048l3.984-1.6c0.832 0.64 1.728 1.168 2.704 1.568l0.608 4.24c0.048 0.384 0.384 0.672 0.784 0.672h6.4c0.4 0 0.736-0.288 0.784-0.672l0.608-4.24c0.976-0.4 1.872-0.944 2.704-1.568l3.984 1.6c0.096 0.032 0.192 0.048 0.288 0.048 0.272 0 0.544-0.144 0.688-0.4l3.2-5.536c0.192-0.352 0.112-0.784-0.192-1.024l-3.376-2.64zM24.718 14.832c0.064 0.496 0.080 0.832 0.080 1.168s-0.032 0.688-0.080 1.168l-0.224 1.808 1.424 1.12 1.728 1.344-1.12 1.936-2.032-0.816-1.664-0.672-1.44 1.088c-0.688 0.512-1.344 0.896-2 1.168l-1.696 0.688-0.256 1.808-0.32 2.16h-2.24l-0.304-2.16-0.256-1.808-1.696-0.688c-0.688-0.288-1.328-0.656-1.968-1.136l-1.456-1.12-1.696 0.688-2.032 0.816-1.12-1.936 1.728-1.344 1.424-1.12-0.224-1.808c-0.048-0.496-0.080-0.864-0.080-1.184s0.032-0.688 0.080-1.168l0.224-1.808-1.424-1.12-1.728-1.344 1.12-1.936 2.032 0.816 1.664 0.672 1.44-1.088c0.688-0.512 1.344-0.896 2-1.168l1.696-0.688 0.256-1.808 0.32-2.16h2.224l0.304 2.16 0.256 1.808 1.696 0.688c0.688 0.288 1.328 0.656 1.968 1.136l1.456 1.12 1.696-0.688 2.032-0.816 1.12 1.936-1.712 1.36-1.424 1.12 0.224 1.808zM15.998 9.6c-3.536 0-6.4 2.864-6.4 6.4s2.864 6.4 6.4 6.4c3.536 0 6.4-2.864 6.4-6.4s-2.864-6.4-6.4-6.4zM15.998 19.2c-1.76 0-3.2-1.44-3.2-3.2s1.44-3.2 3.2-3.2c1.76 0 3.2 1.44 3.2 3.2s-1.44 3.2-3.2 3.2z"></path>
</symbol>
<symbol id="icon-total" viewBox="0 0 59 32">
<path   d="M5.333 21.333l1.333 0.187 12.187-12.187c-0.48-1.733-0.027-3.707 1.387-5.093 2.080-2.107 5.44-2.107 7.52 0 1.413 1.387 1.867 3.36 1.387 5.093l6.853 6.853 1.333-0.187c0.48 0 0.933 0 1.333 0.187l9.52-9.52c-0.187-0.4-0.187-0.853-0.187-1.333 0-1.414 0.562-2.771 1.562-3.771s2.357-1.562 3.771-1.562c1.414 0 2.771 0.562 3.771 1.562s1.562 2.357 1.562 3.771c0 1.414-0.562 2.771-1.562 3.771s-2.357 1.562-3.771 1.562c-0.48 0-0.933 0-1.333-0.187l-9.52 9.52c0.187 0.4 0.187 0.853 0.187 1.333 0 1.414-0.562 2.771-1.562 3.771s-2.357 1.562-3.771 1.562c-1.414 0-2.771-0.562-3.771-1.562s-1.562-2.357-1.562-3.771l0.187-1.333-6.853-6.853c-0.853 0.187-1.813 0.187-2.667 0l-12.187 12.187 0.187 1.333c0 1.414-0.562 2.771-1.562 3.771s-2.357 1.562-3.771 1.562c-1.414 0-2.771-0.562-3.771-1.562s-1.562-2.357-1.562-3.771c0-1.414 0.562-2.771 1.562-3.771s2.357-1.562 3.771-1.562v0z"></path>
</symbol>
</defs>
</svg>
